<?xml version="1.0" standalone="no"?>
<!DOCTYPE svg PUBLIC "-//W3C//DTD SVG 20010904//EN"
 "http://www.w3.org/TR/2001/REC-SVG-20010904/DTD/svg10.dtd">
<svg version="1.0" xmlns="http://www.w3.org/2000/svg"
 width="797.000000pt" height="450.000000pt" viewBox="0 0 797.000000 450.000000"
 preserveAspectRatio="xMidYMid meet">
<metadata>
Created by potrace 1.16, written by Peter Selinger 2001-2019
</metadata>
<g transform="translate(0.000000,450.000000) scale(0.100000,-0.100000)"
fill="#000000" stroke="none">
<path d="M3559 3815 c-76 -20 -137 -56 -205 -118 -84 -77 -155 -187 -206 -319
l-42 -108 -248 0 c-190 0 -249 -3 -252 -12 -2 -7 -65 -215 -139 -463 -236
-783 -312 -1059 -338 -1235 -18 -126 -7 -277 28 -385 l29 -90 1439 0 1440 0
18 70 c23 85 27 288 8 385 -37 194 -115 477 -342 1235 -78 259 -143 476 -145
483 -3 9 -52 12 -202 12 l-199 0 -32 88 c-61 172 -184 338 -303 409 -96 58
-211 76 -309 48z m245 -73 c140 -65 254 -212 327 -419 l18 -53 -494 0 -494 0
19 53 c49 141 118 254 203 334 130 123 276 153 421 85z m-720 -589 c-7 -38
-13 -85 -14 -105 0 -33 3 -38 24 -38 21 0 24 5 30 68 3 37 11 84 16 105 l11
37 504 0 504 0 10 -37 c6 -21 13 -64 17 -95 6 -52 9 -58 30 -58 29 0 30 19 10
123 l-13 67 175 -2 175 -3 162 -540 c275 -918 327 -1122 329 -1305 0 -58 -5
-135 -13 -172 l-13 -68 -1403 0 -1403 0 -11 32 c-60 185 -55 344 20 643 50
196 308 1068 405 1368 l16 47 222 0 223 0 -13 -67z"/>
</g>
</svg>
